<svg xmlns="http://www.w3.org/2000/svg" viewBox="0 0 880.24 798.52"><defs><style>.cls-1{fill:#2085b7;}.cls-2{fill:#d5e9f2;}.cls-3{fill:#a8d7e9;}.cls-4{fill:#002b43;}.cls-5{fill:#000f16;}.cls-10,.cls-6{fill:#fff;}.cls-7{fill:#3aedb1;}.cls-8{fill:#2a56f4;}.cls-9{fill:#0643f2;}.cls-10{opacity:0.2;}</style></defs><g id="Layer_2" data-name="Layer 2"><g id="Layer_2-2" data-name="Layer 2"><ellipse class="cls-1" cx="325.39" cy="771.09" rx="175.62" ry="27.43"/><path class="cls-2" d="M459.38,202.28C413.75,135.9,302.77,135.9,302.77,135.9s-111,0-156.62,66.38c-41.88,60.92-41.49,144.17-41.49,144.17l40.45,51.86H460.42l40.45-51.86S501.27,263.2,459.38,202.28Z"/><path class="cls-3" d="M459.45,202.28c-17.9-26-45.83-41.85-73.18-51.47,14.15,8.81,27,20,36.87,34.35,41.89,60.93,41.49,144.17,41.49,144.17l-40.45,51.86H131.83l13.35,17.12h315.3l40.45-51.86S501.33,263.2,459.45,202.28Z"/><path class="cls-4" d="M403.37,215.76c-42.52-32.15-158.69-32.15-201.21,0C156,250.67,157.56,334,157.56,334H448S449.54,250.67,403.37,215.76Z"/><path class="cls-5" d="M158.77,334c2.85-27.18,12.28-72.68,43.39-96.2,42.52-32.15,158.69-32.15,201.21,0,31.11,23.52,40.55,69,43.39,96.2H448s1.57-83.33-44.6-118.24c-42.52-32.15-158.69-32.15-201.21,0C156,250.67,157.56,334,157.56,334Z"/><rect class="cls-2" x="261.8" y="120.34" width="81.94" height="34.23" rx="6.22"/><polygon class="cls-2" points="284.27 136.94 293.6 49.81 306.05 49.81 321.27 137.45 284.27 136.94"/><path class="cls-2" d="M315.21,49.81a15,15,0,1,1-15-15A15,15,0,0,1,315.21,49.81Z"/><path class="cls-3" d="M309.56,38.06a15,15,0,0,1-22.92,18.31,15,15,0,1,0,22.92-18.31Z"/><polygon class="cls-3" points="145.11 398.31 460.42 398.31 500.87 346.45 104.66 346.45 145.11 398.31"/><path class="cls-3" d="M343.74,138.16c0,2.19-1.4,4-3.12,4H305.88c-1.72,0-3.11-1.77-3.11-4V124.3c0-2.19,1.39-4,3.11-4h34.74c1.72,0,3.12,1.77,3.12,4Z"/><path class="cls-6" d="M240.7,164.51c-5-9.67-27.92-4.14-35.39-.61-6.1,2.88-17.15,9.27-24.19,16a82.92,82.92,0,0,0-14.92,15.47c-3.6,4.85-10.4,14.84-6,21.21,4.8,7,12.89.93,16.92-3.11,10.47-10.53,18.51-21.8,32.71-28.22C216.77,182.14,246.66,175.91,240.7,164.51Z"/><path class="cls-6" d="M294.18,41.14c-7.08,1.71-4.37,16.51,4.34,8.54C305.45,43.35,298.19,39.37,294.18,41.14Z"/><path class="cls-2" d="M517.69,515.79,456.06,409.51H149.47L87.85,515.79s2.63,44.29,17.5,84.77C128.2,662.79,150,687.69,150,687.69l75.42,29.12,76.68,7.05V724s.52-.07.69-.07.68.07.68.07v-.13l76.68-7.05,75.43-29.12s27.36-35.27,44.63-87.13C513.81,559.64,517.69,515.79,517.69,515.79Z"/><path class="cls-3" d="M456.06,409.51h-72.6l61.63,106.28s-3.88,43.85-17.51,84.77c-17.26,51.86-25,72.52-44.63,87.13-16.21,12.06-75.42,29.12-75.42,29.12l-41.06,3.78,35.61,3.27V724s.52-.07.69-.07.68.07.68.07v-.13l76.68-7.05,75.43-29.12s27.36-35.27,44.63-87.13c13.62-40.92,17.5-84.77,17.5-84.77Z"/><polygon class="cls-3" points="87.84 515.79 517.69 515.79 500.93 547.66 87.84 515.79"/><path class="cls-6" d="M174.13,586.27c-1.22-15.42,9.31-36.68-8.29-44.83-9.05-4.18-24.33-5.9-31.32,3.09a20.9,20.9,0,0,0-4.12,11.79c-2.52,11,3.4,27.09,6.16,36.95,3.26,11.61,14.55,52.43,35.35,41.31C186.08,627,175,597.69,174.13,586.27Z"/><path class="cls-6" d="M196.74,431.71c-9.35-13.34-22.5-8.9-31.86.78-20.84,12.68-43,64.49-11.46,69.56,18.15,2.92,23.72-19.2,29.87-31.16C188.93,459.92,205.92,444.8,196.74,431.71Z"/><path class="cls-2" d="M473.94,409.51S608.77,325.7,634.7,325.7s15.56,46.68-25.93,97.66c-40.26,49.46-79.86,78.95-79.86,78.95Z"/><path class="cls-3" d="M634.7,325.7c-2.59,0-6.27.84-10.79,2.35-.75,18.23-14.49,48-40,79.37A532.14,532.14,0,0,1,514.49,478l14.42,24.33s39.6-29.49,79.86-78.95C650.26,372.38,660.63,325.7,634.7,325.7Z"/><path class="cls-6" d="M605.69,345.2c-3.54-2.32-13.84,2.92-16.76,4.36-4.89,2.4-17.52,10.34-20.16,17.93-2.93,4-3.45,7.88,1.4,10.29,7.32,3.65,27.69-12.86,32.11-18.29C605,356.1,610.55,348.38,605.69,345.2Z"/><path class="cls-2" d="M149.11,696.86s27.38,71.4,50.3,73.74S223,724,223,724Z"/><path class="cls-3" d="M204.56,716.93c-.26,6.93-2.38,40.72-18.5,45,4.72,4.93,9.52,8.2,14.13,8.67,22.93,2.33,23.6-46.61,23.6-46.61Z"/><path class="cls-2" d="M387.92,724s35,53.8,80.11,42.56c18.87-4.71-10.88-69.69-10.88-69.69Z"/><path class="cls-3" d="M457.15,696.86l-18.78,7.36c7.56,19,19.52,54.24,5.81,57.66a51.58,51.58,0,0,1-10.88,1.51c10.44,4.38,22.2,6.28,34.73,3.16C486.9,761.84,457.15,696.86,457.15,696.86Z"/><path class="cls-7" d="M343.8,288a2.42,2.42,0,0,0-2.49,2.36c0,.14-.44,11.05-7.38,16.77-6.62,5.46-18.63,7.29-24.46,7.27-5.45.24-17.84-1.81-24.47-7.27-6.93-5.72-7.36-16.63-7.37-16.77a2.43,2.43,0,0,0-4.86.14c0,.53.47,13.22,9.14,20.38,8.85,7.3,20.27,8.41,26.4,8.41,7.32,0,19.87-1.11,28.72-8.41,8.67-7.16,9.12-19.85,9.14-20.38A2.42,2.42,0,0,0,343.8,288Z"/><path class="cls-2" d="M81.4,501.71s-46,49.86-67.65,64.16C-2.66,576.71-15,517.15,41.94,464.8c55.7-51.19,101-59.25,101-59.25Z"/><path class="cls-3" d="M41.94,464.8c55.7-51.19,101-59.25,101-59.25l-5.12,8c-17.56,8.79-40.22,23-64.93,45.73C34.58,494.44,27.6,532.87,32.12,551a171.9,171.9,0,0,1-18.37,14.86C-2.66,576.71-15,517.15,41.94,464.8Z"/><path class="cls-7" d="M227.57,255.93a14.35,14.35,0,1,1-14.35-14.34A14.34,14.34,0,0,1,227.57,255.93Z"/><path class="cls-7" d="M409.92,255.93a14.35,14.35,0,1,1-14.35-14.34A14.35,14.35,0,0,1,409.92,255.93Z"/><path class="cls-8" d="M878.77,403.89c4.91,15-2.86,31.05-17.36,35.79L644.83,510.54c-14.5,4.74-30.24-3.6-35.16-18.62L484.08,108c-4.92-15,2.85-31,17.35-35.79L718,1.33c14.5-4.74,30.23,3.59,35.15,18.62Z"/><path class="cls-9" d="M729.31.17a29.19,29.19,0,0,1,9.18,13.52l125.6,383.94c4.92,15-2.85,31.05-17.35,35.79L630.15,504.27a26.53,26.53,0,0,1-11.29,1.16,27.38,27.38,0,0,0,26,5.11l216.58-70.86c14.5-4.74,22.27-20.76,17.36-35.79L753.17,20A28.67,28.67,0,0,0,729.31.17Z"/><path class="cls-4" d="M854.83,393.43c4.55,13.92-1.89,28.52-14.39,32.61L653.68,487.13c-12.5,4.09-26.33-3.88-30.88-17.8L506.46,113.69c-4.55-13.91,1.89-28.51,14.4-32.6L707.61,20c12.5-4.09,26.33,3.87,30.88,17.79Z"/><rect class="cls-7" x="538.96" y="90.07" width="133" height="29.38" transform="translate(-2.56 193.44) rotate(-18.11)"/><rect class="cls-7" x="646.24" y="204.13" width="133" height="29.38" transform="translate(-32.71 232.45) rotate(-18.11)"/><rect class="cls-7" x="699.59" y="237.06" width="91.5" height="29.38" transform="translate(-41.33 244.21) rotate(-18.11)"/><rect class="cls-7" x="632.33" y="378.48" width="91.5" height="29.38" transform="translate(-88.64 230.31) rotate(-18.11)"/><rect class="cls-7" x="645.13" y="417.62" width="91.5" height="29.38" transform="translate(-100.17 236.23) rotate(-18.11)"/><rect class="cls-7" x="623.16" y="295.1" width="184.5" height="29.38" transform="translate(-60.86 237.78) rotate(-18.11)"/><rect class="cls-7" x="555.74" y="145.36" width="91.69" height="28" transform="translate(-19.73 194.94) rotate(-18.11)"/><polygon class="cls-10" points="522.93 164.05 607.87 52.62 641.1 41.64 542.48 223.81 522.93 164.05"/><polygon class="cls-10" points="567.91 301.55 588.09 363.23 747.19 64.39 738.49 37.79 567.91 301.55"/><polygon class="cls-10" points="696.02 473.28 808.57 252.03 818.08 281.08 773.96 447.78 696.02 473.28"/><polygon class="cls-10" points="593.82 380.75 751.7 78.18 759.63 102.4 604.67 413.91 593.82 380.75"/></g></g></svg>