<svg xmlns="http://www.w3.org/2000/svg" viewBox="0 0 706.96 772.77"><defs><style>.cls-1{fill:#2085b7;}.cls-2{fill:#d5e9f2;}.cls-3{fill:#a8d7e9;}.cls-4{fill:#002b43;}.cls-5{fill:#000f16;}.cls-6{fill:#fff;}.cls-7{fill:#3aedb1;}</style></defs><g id="Layer_2" data-name="Layer 2"><g id="Layer_2-2" data-name="Layer 2"><path class="cls-1" d="M562.1,745.34c0,15.15-78.62,27.43-175.61,27.43s-175.62-12.28-175.62-27.43,78.63-27.43,175.62-27.43S562.1,730.19,562.1,745.34Z"/><path class="cls-2" d="M517.51,167.51c-45.64-66.38-156.62-66.38-156.62-66.38s-111,0-156.61,66.38c-41.89,60.92-41.49,144.17-41.49,144.17l40.45,51.86H518.55L559,311.68S559.39,228.43,517.51,167.51Z"/><path class="cls-3" d="M517.57,167.51c-17.89-26-45.83-41.85-73.18-51.47,14.15,8.81,27,20,36.88,34.35,41.88,60.93,41.49,144.17,41.49,144.17l-40.45,51.86H190l13.35,17.12H518.61l40.45-51.86S559.46,228.43,517.57,167.51Z"/><path class="cls-4" d="M461.5,181c-42.52-32.15-158.69-32.15-201.22,0-46.16,34.91-44.59,118.24-44.59,118.24H506.1S507.67,215.9,461.5,181Z"/><path class="cls-5" d="M216.9,299.23c2.84-27.19,12.28-72.68,43.38-96.2,42.53-32.15,158.7-32.15,201.22,0,31.1,23.52,40.54,69,43.39,96.2h1.21S507.67,215.9,461.5,181c-42.52-32.15-158.69-32.15-201.22,0-46.16,34.91-44.59,118.24-44.59,118.24Z"/><rect class="cls-2" x="319.92" y="85.57" width="81.94" height="34.23" rx="6.22"/><polygon class="cls-2" points="342.39 102.16 351.73 15.04 364.17 15.04 379.39 102.68 342.39 102.16"/><path class="cls-2" d="M373.34,15a15,15,0,1,1-15-15A15,15,0,0,1,373.34,15Z"/><path class="cls-3" d="M367.69,3.29A15,15,0,0,1,344.76,21.6,15,15,0,1,0,367.69,3.29Z"/><polygon class="cls-3" points="203.24 363.54 518.55 363.54 559 311.68 162.79 311.68 203.24 363.54"/><path class="cls-3" d="M401.86,103.39c0,2.19-1.39,4-3.11,4H364c-1.71,0-3.11-1.77-3.11-4V89.53c0-2.19,1.4-4,3.11-4h34.75c1.72,0,3.11,1.77,3.11,4Z"/><path class="cls-6" d="M298.83,129.74c-5.06-9.67-27.92-4.14-35.39-.61-6.11,2.88-17.15,9.27-24.19,16a82.92,82.92,0,0,0-14.92,15.47c-3.61,4.85-10.41,14.84-6.05,21.21,4.8,7,12.9.93,16.92-3.11,10.47-10.53,18.51-21.81,32.71-28.22C274.89,147.37,304.79,141.14,298.83,129.74Z"/><path class="cls-6" d="M352.31,6.37c-7.08,1.71-4.38,16.51,4.34,8.54C363.57,8.58,356.32,4.59,352.31,6.37Z"/><path class="cls-2" d="M575.81,481,514.19,374.74H207.59L146,481s2.64,44.29,17.5,84.77c22.85,62.23,44.63,87.12,44.63,87.12L283.53,682l76.68,7.05v.13s.51-.07.68-.07.69.07.69.07v-.13L438.26,682l75.42-29.13s27.36-35.26,44.63-87.12C571.93,524.87,575.81,481,575.81,481Z"/><path class="cls-3" d="M514.19,374.74h-72.6L503.21,481s-3.88,43.85-17.5,84.77c-17.27,51.86-25,72.51-44.63,87.12C424.86,665,365.66,682,365.66,682l-41.07,3.78,35.62,3.27v.13s.51-.07.68-.07.69.07.69.07v-.13L438.26,682l75.42-29.13s27.36-35.26,44.63-87.12c13.62-40.92,17.5-84.77,17.5-84.77Z"/><polygon class="cls-3" points="145.97 481.02 575.81 481.02 559.06 512.89 145.97 481.02"/><path class="cls-6" d="M232.26,551.5c-1.22-15.42,9.3-36.68-8.3-44.83-9-4.18-24.32-5.9-31.32,3.09a21,21,0,0,0-4.12,11.79c-2.52,11,3.4,27.09,6.17,37,3.25,11.61,14.55,52.43,35.34,41.31C244.2,592.23,233.16,562.92,232.26,551.5Z"/><path class="cls-6" d="M254.87,396.93c-9.35-13.34-22.5-8.89-31.87.79-20.83,12.68-42.95,64.49-11.46,69.56,18.16,2.92,23.72-19.2,29.88-31.16C247.06,425.15,264.05,410,254.87,396.93Z"/><path class="cls-2" d="M532.06,374.74s134.84-83.81,160.77-83.81,15.55,46.68-25.93,97.65c-40.26,49.47-79.87,79-79.87,79Z"/><path class="cls-3" d="M692.83,290.93c-2.6,0-6.28.84-10.8,2.35-.74,18.23-14.48,48-40,79.37a532.85,532.85,0,0,1-69.38,70.56L587,467.54s39.61-29.49,79.87-79C708.38,337.61,718.76,290.93,692.83,290.93Z"/><path class="cls-2" d="M195.81,374.74S28.06,347.65,7.42,356.24s3.29,45.41,53.45,75.65c48.67,29.34,77,37.33,77,37.33Z"/><path class="cls-3" d="M7.42,356.24c2.06-.86,5.27-1.35,9.38-1.55,6.72,15.48,27.65,36.59,58.53,55.21,33.42,20.14,58.79,31.73,82,27.57l-19.47,31.75s-28.34-8-77-37.33C10.71,401.65-13.23,364.83,7.42,356.24Z"/><path class="cls-6" d="M84.14,374.91c-4.75-7.56-21.61-12.09-29.53-11.67-4.08.22-6.78,1.62-8.32,3.54-3.73,2.35-3.38,5.38-.66,8.42A10.75,10.75,0,0,0,53.22,381v-.14C68.7,389.42,96.17,394,84.14,374.91Z"/><path class="cls-6" d="M663.82,310.43c-3.55-2.32-13.85,2.92-16.77,4.36-4.89,2.4-17.52,10.34-20.15,17.93-2.94,4-3.46,7.88,1.39,10.29,7.33,3.64,27.7-12.86,32.11-18.29C663.16,321.33,668.67,313.61,663.82,310.43Z"/><path class="cls-2" d="M207.24,662.09s27.37,71.4,50.3,73.74,23.6-46.61,23.6-46.61Z"/><path class="cls-3" d="M262.69,682.16c-.27,6.93-2.39,40.72-18.5,45,4.71,4.92,9.51,8.2,14.13,8.67,22.92,2.33,23.59-46.61,23.59-46.61Z"/><path class="cls-2" d="M446,689.22s35,53.8,80.12,42.56c18.87-4.71-10.89-69.69-10.89-69.69Z"/><path class="cls-3" d="M515.27,662.09l-18.78,7.36c7.57,19,19.52,54.24,5.81,57.66a51.58,51.58,0,0,1-10.88,1.51c10.45,4.38,22.2,6.28,34.74,3.16C545,727.07,515.27,662.09,515.27,662.09Z"/><path class="cls-7" d="M401.93,253.22a2.44,2.44,0,0,0-2.5,2.36c0,.15-.44,11.06-7.37,16.77-6.63,5.47-18.64,7.3-24.47,7.28-5.44.24-17.84-1.81-24.46-7.28-6.94-5.71-7.37-16.62-7.37-16.77a2.44,2.44,0,0,0-4.87.14c0,.54.47,13.23,9.14,20.39,8.85,7.3,20.27,8.41,26.41,8.41,7.31,0,19.86-1.11,28.71-8.41,8.68-7.16,9.13-19.85,9.14-20.39A2.43,2.43,0,0,0,401.93,253.22Z"/><path class="cls-7" d="M313.85,232.6a3.48,3.48,0,0,1-3.48-3.44,18.36,18.36,0,0,0-2.69-8.37c-3.3-5.26-9.16-7.93-17.4-7.93h-.17c-17.78.08-20.23,15-20.32,15.62a3.48,3.48,0,0,1-6.89-1C264,220,271.13,206,290.08,205.9h.2c26.48,0,27.05,22.95,27.06,23.18a3.48,3.48,0,0,1-3.45,3.52Z"/><path class="cls-7" d="M455.52,232.6a3.49,3.49,0,0,1-3.49-3.44,18.36,18.36,0,0,0-2.69-8.37c-3.3-5.26-9.16-7.93-17.4-7.93h-.16c-17.79.08-20.23,15-20.33,15.62a3.48,3.48,0,0,1-6.89-1c1.12-7.42,8.23-21.46,27.19-21.54h.19c26.49,0,27.06,22.95,27.06,23.18a3.48,3.48,0,0,1-3.44,3.52Z"/></g></g></svg>