<svg width="32" height="32" viewBox="0 0 32 32" fill="none" xmlns="http://www.w3.org/2000/svg">
<path d="M16.8187 2.94667C16.5846 2.76459 16.2965 2.66574 16 2.66574C15.7035 2.66574 15.4154 2.76459 15.1813 2.94667L4.21067 11.48C3.72955 11.8543 3.34033 12.3335 3.07274 12.8812C2.80514 13.4289 2.66625 14.0305 2.66667 14.64V26.6667C2.66667 27.3739 2.94762 28.0522 3.44772 28.5523C3.94782 29.0524 4.6261 29.3333 5.33334 29.3333H10.6667C11.3739 29.3333 12.0522 29.0524 12.5523 28.5523C13.0524 28.0522 13.3333 27.3739 13.3333 26.6667V18.6667H18.6667V26.6667C18.6667 27.3739 18.9476 28.0522 19.4477 28.5523C19.9478 29.0524 20.6261 29.3333 21.3333 29.3333H26.6667C27.3739 29.3333 28.0522 29.0524 28.5523 28.5523C29.0524 28.0522 29.3333 27.3739 29.3333 26.6667V14.64C29.3334 14.0302 29.1941 13.4285 28.9261 12.8808C28.658 12.3331 28.2683 11.854 27.7867 11.48L16.8187 2.94667V2.94667Z" fill="#7CB4BA"/>
</svg>
