<svg xmlns="http://www.w3.org/2000/svg" viewBox="0 0 636.04 763.79"><defs><style>.cls-1{fill:#2085b7;}.cls-2{fill:#d5e9f2;}.cls-3{fill:#a8d7e9;}.cls-4{fill:#002b43;}.cls-5{fill:#000f16;}.cls-6{fill:#fff;}.cls-7{fill:#3aedb1;}</style></defs><g id="Layer_2" data-name="Layer 2"><g id="Layer_2-2" data-name="Layer 2"><ellipse class="cls-1" cx="343.04" cy="736.37" rx="175.62" ry="27.43"/><path class="cls-2" d="M476.27,167.51c-45.64-66.38-156.62-66.38-156.62-66.38s-111,0-156.61,66.38c-41.89,60.92-41.49,144.17-41.49,144.17L162,363.54H477.31l40.45-51.86S518.15,228.43,476.27,167.51Z"/><path class="cls-3" d="M476.33,167.51c-17.89-26-45.83-41.85-73.18-51.47,14.15,8.81,27,20,36.88,34.35,41.88,60.93,41.49,144.17,41.49,144.17l-40.45,51.86H148.71l13.35,17.12H477.37l40.45-51.86S518.22,228.43,476.33,167.51Z"/><path class="cls-4" d="M420.26,181c-42.52-32.15-158.69-32.15-201.22,0-46.16,34.91-44.6,118.24-44.6,118.24H464.86S466.43,215.9,420.26,181Z"/><path class="cls-5" d="M175.66,299.23c2.84-27.18,12.28-72.68,43.38-96.2,42.53-32.15,158.7-32.15,201.22,0,31.1,23.52,40.54,69,43.39,96.2h1.21s1.57-83.33-44.6-118.24c-42.52-32.15-158.69-32.15-201.22,0-46.16,34.91-44.6,118.24-44.6,118.24Z"/><rect class="cls-2" x="278.68" y="85.57" width="81.94" height="34.23" rx="6.22"/><polygon class="cls-2" points="301.15 102.16 310.49 15.04 322.93 15.04 338.15 102.68 301.15 102.16"/><path class="cls-2" d="M332.1,15a15,15,0,1,1-15-15A15,15,0,0,1,332.1,15Z"/><path class="cls-3" d="M326.45,3.29A15,15,0,0,1,303.52,21.6,15,15,0,1,0,326.45,3.29Z"/><polygon class="cls-3" points="162 363.54 477.31 363.54 517.76 311.68 121.55 311.68 162 363.54"/><path class="cls-3" d="M360.62,103.39c0,2.19-1.39,4-3.11,4H322.76c-1.71,0-3.11-1.77-3.11-4V89.53c0-2.19,1.4-4,3.11-4h34.75c1.72,0,3.11,1.77,3.11,4Z"/><path class="cls-6" d="M257.59,129.74c-5.06-9.67-27.92-4.14-35.39-.61-6.11,2.88-17.15,9.27-24.19,16a82.92,82.92,0,0,0-14.92,15.47c-3.61,4.85-10.41,14.84-6.05,21.21,4.8,7,12.9.93,16.92-3.11,10.47-10.53,18.51-21.81,32.71-28.22C233.65,147.37,263.55,141.14,257.59,129.74Z"/><path class="cls-2" d="M534.57,481,473,374.74H166.35L104.73,481s2.64,44.29,17.5,84.77c22.85,62.23,44.63,87.12,44.63,87.12L242.29,682,319,689.09v.13s.51-.07.68-.07.69.07.69.07v-.13L397,682l75.42-29.13s27.36-35.26,44.63-87.12C530.69,524.87,534.57,481,534.57,481Z"/><path class="cls-3" d="M473,374.74h-72.6L462,481s-3.88,43.85-17.5,84.77c-17.27,51.86-25,72.52-44.63,87.12C383.62,665,324.42,682,324.42,682l-41.07,3.78L319,689.09v.13s.51-.07.68-.07.69.07.69.07v-.13L397,682l75.42-29.13s27.36-35.26,44.63-87.12c13.62-40.92,17.5-84.77,17.5-84.77Z"/><polygon class="cls-3" points="104.73 481.02 534.57 481.02 517.82 512.89 104.73 481.02"/><path class="cls-6" d="M191,551.5c-1.22-15.42,9.3-36.68-8.3-44.83-9-4.18-24.32-5.9-31.32,3.09a21,21,0,0,0-4.12,11.79c-2.52,11,3.4,27.09,6.17,37,3.25,11.61,14.55,52.43,35.34,41.31C203,592.23,191.92,562.92,191,551.5Z"/><path class="cls-6" d="M213.63,396.93c-9.35-13.34-22.5-8.89-31.87.79-20.83,12.68-42.95,64.49-11.46,69.56,18.16,2.92,23.72-19.2,29.88-31.16C205.82,425.15,222.81,410,213.63,396.93Z"/><path class="cls-2" d="M481.77,374.26s109.86-114.61,135-121,26.64,41.36-.92,101c-26.75,57.9-72.54,118-72.54,118Z"/><path class="cls-3" d="M616.75,253.23c-2.51.64-5.87,2.36-9.88,4.94,3.8,17.85-2.14,50.08-19.11,86.82-18.36,39.75-53.06,80.85-64,96.1l19.57,31.18s45.79-60.11,72.54-118C643.39,294.59,641.87,246.8,616.75,253.23Z"/><path class="cls-6" d="M593.48,279.31c-4-1.38-12.69,6.25-15.17,8.37-4.14,3.54-14.41,14.37-15.08,22.37-1.86,4.57-1.39,8.49,3.91,9.62,8,1.72,23.64-19.32,26.57-25.68C595.54,290,599,281.18,593.48,279.31Z"/><path class="cls-2" d="M154.22,374.6S44.43,259.93,19.31,253.49s-26.66,41.35.87,101c26.71,57.92,72.46,118.06,72.46,118.06Z"/><path class="cls-3" d="M19.31,253.49c2.51.65,5.87,2.37,9.87,4.95-3.81,17.85,2.12,50.08,19.07,86.83,18.33,39.76,53,80.88,64,96.14L92.64,472.58S46.89,412.44,20.18,354.52C-7.35,294.84-5.81,247.05,19.31,253.49Z"/><path class="cls-6" d="M42.57,279.58c4-1.37,12.68,6.27,15.16,8.39,4.13,3.54,14.4,14.37,15.07,22.37,1.85,4.57,1.38,8.49-3.91,9.63-8,1.71-23.64-19.34-26.57-25.7C40.5,290.3,37.07,281.46,42.57,279.58Z"/><path class="cls-2" d="M166,662.09s27.37,71.4,50.3,73.74,23.59-46.61,23.59-46.61Z"/><path class="cls-3" d="M221.45,682.16c-.27,6.93-2.39,40.72-18.5,45,4.71,4.92,9.51,8.2,14.13,8.67,22.92,2.33,23.59-46.61,23.59-46.61Z"/><path class="cls-2" d="M404.8,689.22s35,53.8,80.12,42.56c18.87-4.71-10.89-69.69-10.89-69.69Z"/><path class="cls-3" d="M474,662.09l-18.78,7.36c7.56,19,19.52,54.24,5.81,57.66a51.58,51.58,0,0,1-10.88,1.51c10.45,4.38,22.2,6.28,34.74,3.16C503.79,727.07,474,662.09,474,662.09Z"/><path class="cls-7" d="M328.52,184.85a2.46,2.46,0,0,1-2.47,2.45h0a2.46,2.46,0,0,1-2.45-2.46l0-11.3a2.45,2.45,0,0,1,2.46-2.45h0a2.46,2.46,0,0,1,2.45,2.46Z"/><path class="cls-7" d="M287.42,214.2a2.47,2.47,0,0,1,2.45,2.47h0a2.46,2.46,0,0,1-2.47,2.44l-11.29,0a2.45,2.45,0,0,1-2.45-2.46h0a2.45,2.45,0,0,1,2.46-2.45Z"/><path class="cls-7" d="M291.88,197.16a2.44,2.44,0,0,1,.92,3.34h0a2.45,2.45,0,0,1-3.34.93l-9.84-5.56a2.45,2.45,0,0,1-.93-3.34h0a2.46,2.46,0,0,1,3.35-.93Z"/><path class="cls-7" d="M308.84,185.66a2.46,2.46,0,0,1-1.18,3.26h0a2.46,2.46,0,0,1-3.27-1.17l-4.8-10.23a2.46,2.46,0,0,1,1.18-3.27h0a2.46,2.46,0,0,1,3.27,1.18Z"/><path class="cls-7" d="M365.66,215a2.49,2.49,0,0,0-2.5,2.48h0a2.49,2.49,0,0,0,2.48,2.49l11.44,0a2.48,2.48,0,0,0,2.49-2.48h0A2.47,2.47,0,0,0,377.1,215Z"/><path class="cls-7" d="M360.17,197.36a2.46,2.46,0,0,0-.95,3.34h0a2.46,2.46,0,0,0,3.34,1l9.87-5.51a2.46,2.46,0,0,0,.95-3.34h0a2.46,2.46,0,0,0-3.34-1Z"/><path class="cls-7" d="M343.28,185.76a2.46,2.46,0,0,0,1.16,3.27h0a2.44,2.44,0,0,0,3.27-1.16l4.86-10.2a2.44,2.44,0,0,0-1.16-3.27h0a2.46,2.46,0,0,0-3.27,1.16Z"/><path class="cls-7" d="M356,216.84c-.4-13.27-14.29-21.35-28.54-21.3a4,4,0,0,0-.8.08,4.89,4.89,0,0,0-.8-.09c-14.41-.13-27.17,7.55-28.61,20.51-.68,6,2.08,12.26,6.28,17,3.61,4,8.24,7.41,9.38,12.37a5.43,5.43,0,0,0-2.68,4.67v2.52l32.07.1v-2.52a5.44,5.44,0,0,0-2.23-4.42c1-4.88,5.4-8.19,9-12.06C353.59,228.9,356.22,223,356,216.84Zm-6.4,3.12c-.89,5.62-4.69,9.68-8.87,13.78-3.36,3.29-5.95,6.76-6.83,10.9l-14.77,0c-.81-3.93-3.16-7.26-6.28-10.46-4.16-4.27-7.85-8-9.14-13.67a14.75,14.75,0,0,1,4.5-13.67c4.46-4.33,11.15-5.88,17.63-5.82a3.94,3.94,0,0,0,.8-.08,4.12,4.12,0,0,0,.81.08C339.78,200.94,351.47,208.33,349.64,220Z"/><rect class="cls-7" x="322.73" y="242.56" width="7.08" height="32.07" transform="translate(66.73 584.11) rotate(-89.83)"/><rect class="cls-7" x="322.71" y="252.08" width="7.07" height="32.06" transform="translate(57.18 593.57) rotate(-89.83)"/><path class="cls-7" d="M310.2,274.05V275a5.45,5.45,0,0,0,5.44,5.47h4.2V281a5.46,5.46,0,0,0,5.44,5.48h1.82a5.46,5.46,0,0,0,5.48-5.44v-.47h4.21a5.46,5.46,0,0,0,5.47-5.44v-.95Z"/></g></g></svg>