<svg width="32" height="32" viewBox="0 0 32 32" fill="none" xmlns="http://www.w3.org/2000/svg">
<path d="M6.66666 2.66667H25.3333C25.687 2.66667 26.0261 2.80715 26.2761 3.0572C26.5262 3.30724 26.6667 3.64638 26.6667 4.00001V28C26.6667 28.3536 26.5262 28.6928 26.2761 28.9428C26.0261 29.1929 25.687 29.3333 25.3333 29.3333H6.66666C6.31304 29.3333 5.9739 29.1929 5.72385 28.9428C5.4738 28.6928 5.33333 28.3536 5.33333 28V4.00001C5.33333 3.64638 5.4738 3.30724 5.72385 3.0572C5.9739 2.80715 6.31304 2.66667 6.66666 2.66667ZM12 14.6667V10.6667L5.33333 16L12 21.3333V17.3333H20V14.6667H12Z" fill="#7CB4BA"/>
</svg>
