<svg width="16" height="16" viewBox="0 0 16 16" fill="none" xmlns="http://www.w3.org/2000/svg">
<path d="M2.66668 12H4.00001V14.7207L7.40068 12H10.6667C11.402 12 12 11.402 12 10.6667V5.33333C12 4.598 11.402 4 10.6667 4L2.66668 4C1.93134 4 1.33334 4.598 1.33334 5.33333L1.33334 10.6667C1.33334 11.402 1.93134 12 2.66668 12Z" fill="#7CB4BA"/>
<path d="M13.3333 1.33334L5.33333 1.33334C4.598 1.33334 4 1.93134 4 2.66668H12C12.7353 2.66668 13.3333 3.26468 13.3333 4.00001V9.33334C14.0687 9.33334 14.6667 8.73534 14.6667 8.00001V2.66668C14.6667 1.93134 14.0687 1.33334 13.3333 1.33334Z" fill="#7CB4BA"/>
</svg>
