<svg xmlns="http://www.w3.org/2000/svg" viewBox="0 0 613.21 763.34"><defs><style>.cls-1{fill:#2085b7;}.cls-2{fill:#d5e9f2;}.cls-3{fill:#a8d7e9;}.cls-4{fill:#002b43;}.cls-5{fill:#000f16;}.cls-6{fill:#fff;}.cls-7{fill:#3aedb1;}</style></defs><g id="Layer_2" data-name="Layer 2"><g id="Layer_2-2" data-name="Layer 2"><path class="cls-1" d="M493.92,735.91c0,15.15-78.63,27.43-175.62,27.43s-175.61-12.28-175.61-27.43,78.62-27.43,175.61-27.43S493.92,720.76,493.92,735.91Z"/><path class="cls-2" d="M462.47,167.51c-45.63-66.38-156.61-66.38-156.61-66.38s-111,0-156.62,66.38c-41.88,60.92-41.49,144.17-41.49,144.17l40.45,51.86H463.51L504,311.68S504.36,228.43,462.47,167.51Z"/><path class="cls-3" d="M462.53,167.51c-17.89-26-45.82-41.85-73.17-51.47,14.15,8.81,27,20,36.87,34.35,41.89,60.93,41.49,144.17,41.49,144.17l-40.45,51.86H134.92l13.35,17.12h315.3L504,311.68S504.42,228.43,462.53,167.51Z"/><path class="cls-4" d="M406.46,181c-42.52-32.15-158.69-32.15-201.21,0-46.17,34.91-44.6,118.24-44.6,118.24H451.06S452.63,215.9,406.46,181Z"/><path class="cls-5" d="M161.86,299.23c2.85-27.19,12.28-72.68,43.39-96.2,42.52-32.15,158.69-32.15,201.21,0,31.11,23.52,40.55,69,43.39,96.2h1.21s1.57-83.33-44.6-118.24c-42.52-32.15-158.69-32.15-201.21,0-46.17,34.91-44.6,118.24-44.6,118.24Z"/><rect class="cls-2" x="264.89" y="85.57" width="81.94" height="34.23" rx="6.22"/><polygon class="cls-2" points="287.36 102.16 296.69 15.04 309.14 15.04 324.36 102.68 287.36 102.16"/><path class="cls-2" d="M318.3,15a15,15,0,1,1-15-15A15,15,0,0,1,318.3,15Z"/><path class="cls-3" d="M312.65,3.29a15.05,15.05,0,0,1-13.54,21.6,14.94,14.94,0,0,1-9.38-3.29A15,15,0,1,0,312.65,3.29Z"/><polygon class="cls-3" points="148.2 363.54 463.51 363.54 503.96 311.68 107.75 311.68 148.2 363.54"/><path class="cls-3" d="M346.83,103.39c0,2.19-1.4,4-3.12,4H309c-1.72,0-3.11-1.77-3.11-4V89.53c0-2.19,1.39-4,3.11-4h34.74c1.72,0,3.12,1.77,3.12,4Z"/><path class="cls-6" d="M243.79,129.74c-5-9.67-27.92-4.14-35.39-.61-6.1,2.88-17.15,9.27-24.19,16a82.92,82.92,0,0,0-14.92,15.47c-3.6,4.85-10.4,14.84-6,21.21,4.8,7,12.89.93,16.92-3.11,10.47-10.53,18.51-21.81,32.71-28.22C219.86,147.37,249.75,141.14,243.79,129.74Z"/><path class="cls-2" d="M520.78,481,459.15,374.74H152.56L90.94,481s2.63,44.29,17.5,84.77c22.85,62.23,44.63,87.12,44.63,87.12L228.49,682l76.68,7.05v.13s.51-.07.69-.07.68.07.68.07v-.13L383.22,682l75.42-29.13s27.37-35.26,44.64-87.12C516.9,524.87,520.78,481,520.78,481Z"/><path class="cls-3" d="M459.15,374.74h-72.6L448.17,481s-3.88,43.85-17.5,84.77c-17.27,51.86-25,72.51-44.63,87.12C369.82,665,310.62,682,310.62,682l-41.07,3.78,35.62,3.27v.13s.51-.07.69-.07.68.07.68.07v-.13L383.22,682l75.42-29.13s27.37-35.26,44.64-87.12c13.62-40.92,17.5-84.77,17.5-84.77Z"/><polygon class="cls-3" points="90.94 481.02 520.78 481.02 504.02 512.89 90.94 481.02"/><path class="cls-6" d="M177.22,551.5c-1.22-15.42,9.31-36.68-8.3-44.83-9-4.18-24.32-5.9-31.31,3.09a20.9,20.9,0,0,0-4.12,11.79c-2.52,11,3.4,27.09,6.16,37,3.26,11.61,14.55,52.43,35.34,41.31C189.17,592.23,178.13,562.92,177.22,551.5Z"/><path class="cls-6" d="M199.83,396.93c-9.35-13.34-22.5-8.89-31.86.79-20.84,12.68-43,64.49-11.46,69.56,18.15,2.92,23.72-19.2,29.87-31.16C192,425.15,209,410,199.83,396.93Z"/><path class="cls-2" d="M533.55,474.24s44,51.63,65.08,66.77c16,11.48,30.66-47.56-24.21-102.1-53.64-53.33-98.56-63.17-98.56-63.17Z"/><path class="cls-3" d="M574.42,438.91c-53.64-53.33-98.56-63.17-98.56-63.17l4.8,8.2c17.21,9.47,39.29,24.57,63.1,48.24,36.85,36.64,42.32,75.31,37.1,93.26A173.07,173.07,0,0,0,598.63,541C614.6,552.49,629.29,493.45,574.42,438.91Z"/><path class="cls-2" d="M80.89,471.84S35.45,522.23,14,536.79c-16.28,11-29.34-48.38,27-101.39C96.09,383.56,141.25,375,141.25,375Z"/><path class="cls-6" d="M41,435.4C96.09,383.56,141.25,375,141.25,375l-5,8.06c-17.46,9-39.95,23.49-64.4,46.49C34,465.12,27.45,503.63,32.18,521.72A173.45,173.45,0,0,1,14,536.79C-2.29,547.82-15.35,488.41,41,435.4Z"/><path class="cls-2" d="M152.2,662.09s27.37,71.4,50.3,73.74,23.6-46.61,23.6-46.61Z"/><path class="cls-3" d="M207.65,682.16c-.26,6.93-2.38,40.72-18.5,45,4.72,4.92,9.51,8.2,14.13,8.67,22.93,2.33,23.6-46.61,23.6-46.61Z"/><path class="cls-2" d="M466.75,657.52s-21.84,73.28-44.52,77.36-27.09-44.67-27.09-44.67Z"/><path class="cls-3" d="M413,681.76c.8,6.89,5.49,40.42,21.89,43.46-4.33,5.27-8.86,8.9-13.43,9.72-22.68,4.08-27.09-44.67-27.09-44.67Z"/><path class="cls-7" d="M362.47,286.78a3.64,3.64,0,0,1-3.72-3.52c0-.22-.65-16.45-11-25-9.86-8.14-27.74-10.86-36.42-10.84-8.11-.35-26.56,2.7-36.42,10.84-10.33,8.51-11,24.74-11,25a3.62,3.62,0,1,1-7.24-.21c0-.8.7-19.69,13.61-30.34,13.17-10.87,30.18-12.53,39.3-12.53,10.9,0,29.58,1.66,42.76,12.53C365.3,263.36,366,282.25,366,283.05A3.63,3.63,0,0,1,362.47,286.78Z"/><path class="cls-7" d="M251.59,214.52c.7,3-1.55,6.18-5,7l-30.22,7c-3.47.8-6.86-1-7.57-4.07h0c-.7-3,1.55-6.18,5-7l30.22-7c3.47-.81,6.86,1,7.57,4.06Z"/><path class="cls-7" d="M406.31,224c-.64,3.06-4,5-7.49,4.22l-30.34-6.37c-3.49-.74-5.8-3.82-5.16-6.88h0c.64-3.06,4-4.95,7.49-4.22l30.34,6.38c3.5.73,5.8,3.81,5.16,6.87Z"/></g></g></svg>