<svg xmlns="http://www.w3.org/2000/svg" viewBox="0 0 664.04 763.34"><defs><style>.cls-1{fill:#2085b7;}.cls-2{fill:#d5e9f2;}.cls-3{fill:#a8d7e9;}.cls-4{fill:#002b43;}.cls-5{fill:#000f16;}.cls-10,.cls-6{fill:#fff;}.cls-7{fill:#3aedb1;}.cls-8{fill:#2a56f4;}.cls-9{fill:#0643f2;}.cls-10{opacity:0.3;}</style></defs><g id="Layer_2" data-name="Layer 2"><g id="Layer_2-2" data-name="Layer 2"><ellipse class="cls-1" cx="392.51" cy="735.91" rx="175.62" ry="27.43"/><path class="cls-2" d="M518.72,167.51c-45.63-66.38-156.61-66.38-156.61-66.38s-111,0-156.62,66.38C163.6,228.43,164,311.68,164,311.68l40.45,51.86H519.76l40.45-51.86S560.61,228.43,518.72,167.51Z"/><path class="cls-3" d="M518.78,167.51c-17.89-26-45.82-41.85-73.17-51.47,14.15,8.81,27,20,36.87,34.35C524.37,211.32,524,294.56,524,294.56l-40.45,51.86H191.17l13.34,17.12H519.82l40.45-51.86S560.67,228.43,518.78,167.51Z"/><path class="cls-4" d="M462.71,181C420.19,148.84,304,148.84,261.5,181c-46.17,34.91-44.6,118.24-44.6,118.24H507.31S508.88,215.9,462.71,181Z"/><path class="cls-5" d="M218.11,299.23c2.85-27.18,12.28-72.68,43.39-96.2,42.52-32.15,158.69-32.15,201.21,0,31.11,23.52,40.54,69,43.39,96.2h1.21s1.57-83.33-44.6-118.24C420.19,148.84,304,148.84,261.5,181c-46.17,34.91-44.6,118.24-44.6,118.24Z"/><rect class="cls-2" x="321.14" y="85.57" width="81.94" height="34.23" rx="6.22"/><polygon class="cls-2" points="343.61 102.16 352.94 15.04 365.39 15.04 380.61 102.68 343.61 102.16"/><path class="cls-2" d="M374.55,15a15,15,0,1,1-15-15A15,15,0,0,1,374.55,15Z"/><path class="cls-3" d="M368.9,3.29a15.05,15.05,0,0,1-13.54,21.6A14.94,14.94,0,0,1,346,21.6,15,15,0,1,0,368.9,3.29Z"/><polygon class="cls-3" points="204.45 363.54 519.76 363.54 560.21 311.68 164 311.68 204.45 363.54"/><path class="cls-3" d="M403.08,103.39c0,2.19-1.4,4-3.12,4H365.22c-1.72,0-3.11-1.77-3.11-4V89.53c0-2.19,1.39-4,3.11-4H400c1.72,0,3.12,1.77,3.12,4Z"/><path class="cls-6" d="M300,129.74c-5.05-9.67-27.92-4.14-35.39-.61-6.1,2.88-17.15,9.27-24.19,16a82.92,82.92,0,0,0-14.92,15.47c-3.6,4.85-10.4,14.84-6,21.21,4.79,7,12.89.93,16.92-3.11,10.47-10.53,18.51-21.8,32.71-28.22C276.11,147.37,306,141.14,300,129.74Z"/><path class="cls-6" d="M353.52,6.37c-7.08,1.71-4.37,16.51,4.34,8.54C364.79,8.58,357.53,4.59,353.52,6.37Z"/><path class="cls-2" d="M577,481,515.4,374.74H208.81L147.19,481s2.63,44.29,17.5,84.77c22.85,62.23,44.63,87.13,44.63,87.13L284.74,682l76.68,7.05v.13s.51-.07.69-.07.68.07.68.07v-.13L439.47,682l75.42-29.12s27.37-35.27,44.63-87.13C573.15,524.87,577,481,577,481Z"/><path class="cls-3" d="M515.4,374.74H442.8L504.42,481s-3.88,43.85-17.5,84.77c-17.27,51.86-25,72.52-44.63,87.13C426.08,665,366.87,682,366.87,682l-41.07,3.78,35.62,3.27v.13s.51-.07.69-.07.68.07.68.07v-.13L439.47,682l75.42-29.12s27.37-35.27,44.63-87.13C573.15,524.87,577,481,577,481Z"/><polygon class="cls-3" points="147.19 481.02 577.03 481.02 560.27 512.89 147.19 481.02"/><path class="cls-6" d="M233.47,551.5c-1.22-15.42,9.31-36.68-8.3-44.83-9-4.18-24.32-5.9-31.32,3.09a21,21,0,0,0-4.11,11.79c-2.53,11,3.4,27.09,6.16,37,3.26,11.61,14.55,52.43,35.34,41.31C245.42,592.24,234.38,562.92,233.47,551.5Z"/><path class="cls-6" d="M256.08,396.93c-9.35-13.34-22.5-8.89-31.86.79-20.84,12.68-43,64.49-11.46,69.56,18.15,2.92,23.72-19.2,29.87-31.16C248.27,425.15,265.26,410,256.08,396.93Z"/><path class="cls-2" d="M197,374.74S59.81,355,39.17,363.54s-27.25,38.12,22.91,68.35c48.67,29.34,77,37.33,77,37.33Z"/><path class="cls-3" d="M37.56,363.54c2.07-.86,22.39-2.9,26.5-3.1,6.72,15.48-18.39,30.84,12.49,49.46,33.41,20.14,58.78,31.74,82,27.57L139.1,469.22s-28.35-8-77-37.33C11.92,401.66,16.92,372.12,37.56,363.54Z"/><path class="cls-2" d="M208.45,662.09s27.37,71.4,50.3,73.74,23.6-46.61,23.6-46.61Z"/><path class="cls-3" d="M263.9,682.16c-.26,6.93-2.38,40.72-18.5,45,4.72,4.92,9.51,8.2,14.13,8.67,22.93,2.33,23.6-46.61,23.6-46.61Z"/><path class="cls-2" d="M447.25,689.22s35,53.8,80.12,42.56c18.87-4.71-10.89-69.69-10.89-69.69Z"/><path class="cls-3" d="M516.48,662.09l-18.78,7.36c7.57,19,19.52,54.24,5.82,57.66a51.58,51.58,0,0,1-10.88,1.51c10.44,4.38,22.2,6.28,34.73,3.16C546.24,727.07,516.48,662.09,516.48,662.09Z"/><path class="cls-7" d="M403.14,253.22a2.45,2.45,0,0,0-2.5,2.36c0,.15-.43,11.06-7.37,16.78-6.62,5.46-18.63,7.29-24.46,7.27-5.45.24-17.84-1.81-24.47-7.27-6.93-5.72-7.37-16.63-7.37-16.78a2.43,2.43,0,1,0-4.86.14c0,.54.46,13.23,9.14,20.39,8.85,7.3,20.27,8.41,26.4,8.41,7.32,0,19.87-1.11,28.72-8.41,8.67-7.16,9.12-19.85,9.14-20.39A2.44,2.44,0,0,0,403.14,253.22Z"/><path class="cls-7" d="M315.07,232.6a3.49,3.49,0,0,1-3.49-3.44,18.42,18.42,0,0,0-2.68-8.37c-3.31-5.26-9.17-7.93-17.41-7.93h-.16c-17.79.08-20.23,15-20.33,15.62a3.48,3.48,0,0,1-6.89-1c1.12-7.41,8.24-21.46,27.19-21.54h.2c26.48,0,27.05,22.95,27.05,23.18a3.48,3.48,0,0,1-3.44,3.52Z"/><path class="cls-7" d="M456.73,232.6a3.47,3.47,0,0,1-3.48-3.44,18.51,18.51,0,0,0-2.69-8.37c-3.31-5.26-9.16-7.93-17.4-7.93H433c-17.78.08-20.23,15-20.33,15.62a3.48,3.48,0,0,1-6.89-1C406.89,220,414,206,433,205.9h.2c26.48,0,27,22.95,27,23.18a3.48,3.48,0,0,1-3.44,3.52Z"/><path class="cls-8" d="M172.06,271.12,8.2,406.64l.15.18c-9.53,10.05-11,24.84-3,34.58s22.88,11,34.53,3.56l.15.18L203.9,309.62Z"/><path class="cls-9" d="M197.7,302,46.17,427.28,46,427.1c-11.65,7.47-26.47,6.18-34.52-3.56a23,23,0,0,1-5.21-14.85C-1.5,418.6-2.28,432,5.21,441.06c8.05,9.74,22.87,11,34.52,3.55l.15.19L203.75,309.27Z"/><circle class="cls-8" cx="259.07" cy="231.57" r="118.84" transform="translate(-87.87 251.02) rotate(-45)"/><path class="cls-9" d="M373.18,197.53a118.87,118.87,0,0,1-230.49,56.86,118.86,118.86,0,1,0,230.49-56.86Z"/><path class="cls-9" d="M320,296.11a96.2,96.2,0,1,1,12.82-135.44A96.2,96.2,0,0,1,320,296.11Z"/><circle class="cls-5" cx="259.07" cy="231.57" r="96.15" transform="translate(-83.68 174.43) rotate(-32.33)"/><path class="cls-10" d="M42.93,410.33a6.21,6.21,0,0,1-8.75-.83h0a6.23,6.23,0,0,1,.82-8.76l112-92.6a6.22,6.22,0,0,1,8.76.83h0a6.22,6.22,0,0,1-.83,8.76Z"/><path class="cls-7" d="M317.85,245.32a8.08,8.08,0,0,1-8.08-8,42.68,42.68,0,0,0-6.24-19.41c-7.68-12.22-21.26-18.41-40.38-18.41h-.39c-41.27.18-46.95,34.76-47.17,36.24a8.09,8.09,0,1,1-16-2.41c2.59-17.21,19.11-49.8,63.09-50h.46c61.46,0,62.78,53.27,62.79,53.8a8.09,8.09,0,0,1-8,8.18Z"/><path class="cls-10" d="M281.16,166c-.92-11.51-15.33-12.88-24-13.34-8.86-.46-21.34,0-43.86,14.51C198,177,184.9,196.59,181.85,214.84c-2.08,12.52-1.92,30.63,8.65,39.69,10.13,8.68,26.3,3.75,33.19-6.53,7.26-10.84,5.1-26,9.31-38.12,4.87-14,11.42-22.28,24.83-27.06C265.85,180,282.1,177.81,281.16,166Z"/><path class="cls-2" d="M584.37,478.58s44,51.63,65.09,66.76c16,11.49,30.65-47.55-24.21-102.09-53.65-53.33-98.56-63.17-98.56-63.17Z"/><path class="cls-3" d="M625.25,443.25c-53.65-53.33-98.56-63.17-98.56-63.17l4.8,8.2c17.2,9.47,39.29,24.57,63.09,48.24,36.86,36.64,42.33,75.31,37.11,93.26a170.56,170.56,0,0,0,17.77,15.56C665.43,556.83,680.11,497.79,625.25,443.25Z"/></g></g></svg>